<svg width="478" height="25" viewBox="0 0 478 25" fill="none" xmlns="http://www.w3.org/2000/svg">
<g clip-path="url(#clip0_62149_2701)">
<path d="M15.962 8.6L12.386 15.248C12.042 15.888 11.626 16.372 11.138 16.7C10.658 17.028 10.134 17.192 9.56598 17.192C9.12598 17.192 8.66998 17.096 8.19798 16.904L8.66598 15.428C9.00198 15.532 9.28198 15.584 9.50598 15.584C9.74598 15.584 9.96198 15.528 10.154 15.416C10.346 15.296 10.522 15.112 10.682 14.864L10.754 14.768L7.44198 8.6H9.51798L11.75 13.112L14.054 8.6H15.962ZM21.1378 13.616H19.7938V17H17.8618V8.6H19.7938V11.996H21.1858L23.3938 8.6H25.4458L22.6978 12.656L25.5298 17H23.3218L21.1378 13.616Z" fill="white"/>
<path d="M45.1488 8.6C45.8928 8.6 46.5368 8.724 47.0807 8.972C47.6328 9.22 48.0568 9.572 48.3528 10.028C48.6488 10.484 48.7968 11.024 48.7968 11.648C48.7968 12.264 48.6488 12.804 48.3528 13.268C48.0568 13.724 47.6328 14.076 47.0807 14.324C46.5368 14.564 45.8928 14.684 45.1488 14.684H43.4568V17H41.5128V8.6H45.1488ZM45.0408 13.1C45.6248 13.1 46.0688 12.976 46.3728 12.728C46.6768 12.472 46.8288 12.112 46.8288 11.648C46.8288 11.176 46.6768 10.816 46.3728 10.568C46.0688 10.312 45.6248 10.184 45.0408 10.184H43.4568V13.1H45.0408ZM58.4757 8.6L54.8997 15.248C54.5557 15.888 54.1397 16.372 53.6517 16.7C53.1717 17.028 52.6477 17.192 52.0797 17.192C51.6397 17.192 51.1837 17.096 50.7117 16.904L51.1797 15.428C51.5157 15.532 51.7957 15.584 52.0197 15.584C52.2597 15.584 52.4757 15.528 52.6677 15.416C52.8597 15.296 53.0357 15.112 53.1957 14.864L53.2677 14.768L49.9557 8.6H52.0317L54.2637 13.112L56.5677 8.6H58.4757Z" fill="white"/>
<rect x="66" width="33" height="25" rx="8" fill="#F0145A"/>
<path d="M80.6289 15.44V17H74.1249V8.6H80.4729V10.16H76.0569V11.984H79.9569V13.496H76.0569V15.44H80.6289ZM90.8797 8.6V17H89.2837L85.0957 11.9V17H83.1757V8.6H84.7837L88.9597 13.7V8.6H90.8797Z" fill="white"/>
<circle cx="108" cy="12.5" r="3" fill="#E6E6F0"/>
<path d="M122.327 13.236L120.039 15.556V18.5H118.855V7.3H120.039V14.068L126.615 7.3H127.975L123.127 12.372L128.311 18.5H126.903L122.327 13.236ZM136.484 10.084L132.276 19.508C131.935 20.2973 131.54 20.8573 131.092 21.188C130.644 21.5187 130.105 21.684 129.476 21.684C129.071 21.684 128.692 21.62 128.34 21.492C127.988 21.364 127.684 21.172 127.428 20.916L127.956 20.068C128.383 20.4947 128.895 20.708 129.492 20.708C129.876 20.708 130.201 20.6013 130.468 20.388C130.745 20.1747 131.001 19.812 131.236 19.3L131.604 18.484L127.844 10.084H129.028L132.196 17.236L135.364 10.084H136.484ZM138.084 10.084H139.22V18.5H138.084V10.084ZM138.66 8.244C138.425 8.244 138.228 8.164 138.068 8.004C137.908 7.844 137.828 7.652 137.828 7.428C137.828 7.21467 137.908 7.028 138.068 6.868C138.228 6.708 138.425 6.628 138.66 6.628C138.895 6.628 139.092 6.708 139.252 6.868C139.412 7.01733 139.492 7.19867 139.492 7.412C139.492 7.64667 139.412 7.844 139.252 8.004C139.092 8.164 138.895 8.244 138.66 8.244ZM149.453 10.084L145.709 18.5H144.541L140.813 10.084H141.997L145.149 17.252L148.333 10.084H149.453ZM150.634 16.836C150.879 16.836 151.082 16.9213 151.242 17.092C151.402 17.252 151.482 17.4547 151.482 17.7C151.482 17.828 151.461 17.9667 151.418 18.116C151.386 18.2653 151.333 18.436 151.258 18.628L150.586 20.836H149.818L150.362 18.516C150.191 18.4627 150.053 18.3667 149.946 18.228C149.839 18.0787 149.786 17.9027 149.786 17.7C149.786 17.4547 149.866 17.252 150.026 17.092C150.186 16.9213 150.389 16.836 150.634 16.836ZM169.956 7.3V18.5H168.82V9.54L164.42 17.076H163.86L159.46 9.588V18.5H158.324V7.3H159.3L164.164 15.604L168.98 7.3H169.956ZM180.693 14.644H173.653C173.717 15.5187 174.053 16.228 174.661 16.772C175.269 17.3053 176.037 17.572 176.965 17.572C177.488 17.572 177.968 17.4813 178.405 17.3C178.843 17.108 179.221 16.8307 179.541 16.468L180.181 17.204C179.808 17.652 179.339 17.9933 178.773 18.228C178.219 18.4627 177.605 18.58 176.933 18.58C176.069 18.58 175.301 18.3987 174.629 18.036C173.968 17.6627 173.451 17.1507 173.077 16.5C172.704 15.8493 172.517 15.1133 172.517 14.292C172.517 13.4707 172.693 12.7347 173.045 12.084C173.408 11.4333 173.899 10.9267 174.517 10.564C175.147 10.2013 175.851 10.02 176.629 10.02C177.408 10.02 178.107 10.2013 178.725 10.564C179.344 10.9267 179.829 11.4333 180.181 12.084C180.533 12.724 180.709 13.46 180.709 14.292L180.693 14.644ZM176.629 10.996C175.819 10.996 175.136 11.2573 174.581 11.78C174.037 12.292 173.728 12.964 173.653 13.796H179.621C179.547 12.964 179.232 12.292 178.677 11.78C178.133 11.2573 177.451 10.996 176.629 10.996ZM186.51 18.58C185.678 18.58 184.931 18.3987 184.27 18.036C183.619 17.6733 183.107 17.1667 182.734 16.516C182.36 15.8547 182.174 15.1133 182.174 14.292C182.174 13.4707 182.36 12.7347 182.734 12.084C183.107 11.4333 183.619 10.9267 184.27 10.564C184.931 10.2013 185.678 10.02 186.51 10.02C187.235 10.02 187.88 10.164 188.446 10.452C189.022 10.7293 189.475 11.14 189.806 11.684L188.958 12.26C188.68 11.844 188.328 11.5347 187.902 11.332C187.475 11.1187 187.011 11.012 186.51 11.012C185.902 11.012 185.352 11.1507 184.862 11.428C184.382 11.6947 184.003 12.0787 183.726 12.58C183.459 13.0813 183.326 13.652 183.326 14.292C183.326 14.9427 183.459 15.5187 183.726 16.02C184.003 16.5107 184.382 16.8947 184.862 17.172C185.352 17.4387 185.902 17.572 186.51 17.572C187.011 17.572 187.475 17.4707 187.902 17.268C188.328 17.0653 188.68 16.756 188.958 16.34L189.806 16.916C189.475 17.46 189.022 17.876 188.446 18.164C187.87 18.4413 187.224 18.58 186.51 18.58ZM196.2 10.02C197.256 10.02 198.093 10.3293 198.712 10.948C199.341 11.556 199.656 12.4467 199.656 13.62V18.5H198.52V13.732C198.52 12.8573 198.301 12.1907 197.864 11.732C197.427 11.2733 196.803 11.044 195.992 11.044C195.085 11.044 194.365 11.316 193.832 11.86C193.309 12.3933 193.048 13.1347 193.048 14.084V18.5H191.912V6.628H193.048V11.556C193.357 11.0653 193.784 10.6867 194.328 10.42C194.872 10.1533 195.496 10.02 196.2 10.02ZM207.028 10.02C208.084 10.02 208.922 10.3293 209.54 10.948C210.17 11.556 210.484 12.4467 210.484 13.62V18.5H209.348V13.732C209.348 12.8573 209.13 12.1907 208.692 11.732C208.255 11.2733 207.631 11.044 206.82 11.044C205.914 11.044 205.194 11.316 204.66 11.86C204.138 12.3933 203.876 13.1347 203.876 14.084V18.5H202.74V10.084H203.828V11.636C204.138 11.124 204.564 10.7293 205.108 10.452C205.663 10.164 206.303 10.02 207.028 10.02ZM213.568 10.084H214.704V18.5H213.568V10.084ZM214.144 8.244C213.91 8.244 213.712 8.164 213.552 8.004C213.392 7.844 213.312 7.652 213.312 7.428C213.312 7.21467 213.392 7.028 213.552 6.868C213.712 6.708 213.91 6.628 214.144 6.628C214.379 6.628 214.576 6.708 214.736 6.868C214.896 7.01733 214.976 7.19867 214.976 7.412C214.976 7.64667 214.896 7.844 214.736 8.004C214.576 8.164 214.379 8.244 214.144 8.244ZM220.985 14.276L219.001 16.1V18.5H217.865V6.628H219.001V14.676L224.025 10.084H225.433L221.833 13.524L225.769 18.5H224.377L220.985 14.276ZM230.571 18.58C229.76 18.58 229.03 18.3987 228.379 18.036C227.728 17.6627 227.216 17.1507 226.843 16.5C226.47 15.8493 226.283 15.1133 226.283 14.292C226.283 13.4707 226.47 12.7347 226.843 12.084C227.216 11.4333 227.728 10.9267 228.379 10.564C229.03 10.2013 229.76 10.02 230.571 10.02C231.382 10.02 232.112 10.2013 232.763 10.564C233.414 10.9267 233.92 11.4333 234.283 12.084C234.656 12.7347 234.843 13.4707 234.843 14.292C234.843 15.1133 234.656 15.8493 234.283 16.5C233.92 17.1507 233.414 17.6627 232.763 18.036C232.112 18.3987 231.382 18.58 230.571 18.58ZM230.571 17.572C231.168 17.572 231.702 17.4387 232.171 17.172C232.651 16.8947 233.024 16.5053 233.291 16.004C233.558 15.5027 233.691 14.932 233.691 14.292C233.691 13.652 233.558 13.0813 233.291 12.58C233.024 12.0787 232.651 11.6947 232.171 11.428C231.702 11.1507 231.168 11.012 230.571 11.012C229.974 11.012 229.435 11.1507 228.955 11.428C228.486 11.6947 228.112 12.0787 227.835 12.58C227.568 13.0813 227.435 13.652 227.435 14.292C227.435 14.932 227.568 15.5027 227.835 16.004C228.112 16.5053 228.486 16.8947 228.955 17.172C229.435 17.4387 229.974 17.572 230.571 17.572ZM244 10.084L240.256 18.5H239.088L235.36 10.084H236.544L239.696 17.252L242.88 10.084H244ZM248.294 10.02C249.392 10.02 250.235 10.2973 250.822 10.852C251.408 11.396 251.702 12.2067 251.702 13.284V18.5H250.614V17.188C250.358 17.6253 249.979 17.9667 249.478 18.212C248.987 18.4573 248.4 18.58 247.718 18.58C246.779 18.58 246.032 18.356 245.478 17.908C244.923 17.46 244.646 16.868 244.646 16.132C244.646 15.4173 244.902 14.8413 245.414 14.404C245.936 13.9667 246.763 13.748 247.894 13.748H250.566V13.236C250.566 12.5107 250.363 11.9613 249.958 11.588C249.552 11.204 248.96 11.012 248.182 11.012C247.648 11.012 247.136 11.1027 246.646 11.284C246.155 11.4547 245.734 11.6947 245.382 12.004L244.87 11.156C245.296 10.7933 245.808 10.516 246.406 10.324C247.003 10.1213 247.632 10.02 248.294 10.02ZM247.894 17.684C248.534 17.684 249.083 17.54 249.542 17.252C250 16.9533 250.342 16.5267 250.566 15.972V14.596H247.926C246.486 14.596 245.766 15.0973 245.766 16.1C245.766 16.5907 245.952 16.98 246.326 17.268C246.699 17.5453 247.222 17.684 247.894 17.684ZM261.231 18.58C260.548 18.58 259.892 18.484 259.263 18.292C258.644 18.0893 258.159 17.8387 257.807 17.54L258.319 16.644C258.671 16.9213 259.113 17.1507 259.647 17.332C260.18 17.5027 260.735 17.588 261.311 17.588C262.079 17.588 262.644 17.4707 263.007 17.236C263.38 16.9907 263.567 16.6493 263.567 16.212C263.567 15.9027 263.465 15.6627 263.263 15.492C263.06 15.3107 262.804 15.1773 262.495 15.092C262.185 14.996 261.775 14.9053 261.263 14.82C260.58 14.692 260.031 14.564 259.615 14.436C259.199 14.2973 258.841 14.068 258.543 13.748C258.255 13.428 258.111 12.9853 258.111 12.42C258.111 11.716 258.404 11.14 258.991 10.692C259.577 10.244 260.393 10.02 261.439 10.02C261.983 10.02 262.527 10.0947 263.071 10.244C263.615 10.3827 264.063 10.5693 264.415 10.804L263.919 11.716C263.225 11.236 262.399 10.996 261.439 10.996C260.713 10.996 260.164 11.124 259.791 11.38C259.428 11.636 259.247 11.972 259.247 12.388C259.247 12.708 259.348 12.964 259.551 13.156C259.764 13.348 260.025 13.492 260.335 13.588C260.644 13.6733 261.071 13.764 261.615 13.86C262.287 13.988 262.825 14.116 263.231 14.244C263.636 14.372 263.983 14.5907 264.271 14.9C264.559 15.2093 264.703 15.636 264.703 16.18C264.703 16.916 264.393 17.5027 263.775 17.94C263.167 18.3667 262.319 18.58 261.231 18.58ZM271.235 17.988C271.021 18.18 270.755 18.3293 270.435 18.436C270.125 18.532 269.8 18.58 269.459 18.58C268.669 18.58 268.061 18.3667 267.635 17.94C267.208 17.5133 266.995 16.9107 266.995 16.132V11.044H265.491V10.084H266.995V8.244H268.131V10.084H270.691V11.044H268.131V16.068C268.131 16.5693 268.253 16.9533 268.499 17.22C268.755 17.476 269.117 17.604 269.587 17.604C269.821 17.604 270.045 17.5667 270.259 17.492C270.483 17.4173 270.675 17.3107 270.835 17.172L271.235 17.988ZM274.391 11.732C274.657 11.1667 275.052 10.74 275.575 10.452C276.108 10.164 276.764 10.02 277.543 10.02V11.124L277.271 11.108C276.385 11.108 275.692 11.38 275.191 11.924C274.689 12.468 274.439 13.2307 274.439 14.212V18.5H273.303V10.084H274.391V11.732ZM279.696 16.836C279.942 16.836 280.144 16.9213 280.304 17.092C280.464 17.252 280.544 17.4547 280.544 17.7C280.544 17.828 280.523 17.9667 280.48 18.116C280.448 18.2653 280.395 18.436 280.32 18.628L279.648 20.836H278.88L279.424 18.516C279.254 18.4627 279.115 18.3667 279.008 18.228C278.902 18.0787 278.848 17.9027 278.848 17.7C278.848 17.4547 278.928 17.252 279.088 17.092C279.248 16.9213 279.451 16.836 279.696 16.836ZM289.499 7.3V18.5H288.347V8.324H285.707V7.3H289.499ZM301.696 15.556H299.456V18.5H298.304V15.556H291.984V14.724L297.92 7.3H299.2L293.472 14.532H298.336V11.94H299.456V14.532H301.696V15.556ZM307.255 5.028H308.295L303.015 20.1H301.975L307.255 5.028ZM312.155 7.3V18.5H311.003V8.324H308.363V7.3H312.155Z" fill="white"/>
<circle cx="323" cy="12.5" r="3" fill="#E6E6F0"/>
<path d="M337.83 18.692C336.902 18.692 336.076 18.4627 335.35 18.004C334.625 17.5453 334.054 16.884 333.638 16.02C333.233 15.1453 333.03 14.1053 333.03 12.9C333.03 11.6947 333.233 10.66 333.638 9.796C334.054 8.92133 334.625 8.25467 335.35 7.796C336.076 7.33733 336.902 7.108 337.83 7.108C338.758 7.108 339.585 7.33733 340.31 7.796C341.036 8.25467 341.601 8.92133 342.006 9.796C342.422 10.66 342.63 11.6947 342.63 12.9C342.63 14.1053 342.422 15.1453 342.006 16.02C341.601 16.884 341.036 17.5453 340.31 18.004C339.585 18.4627 338.758 18.692 337.83 18.692ZM337.83 16.5C338.513 16.5 339.046 16.2067 339.43 15.62C339.825 15.0333 340.022 14.1267 340.022 12.9C340.022 11.6733 339.825 10.7667 339.43 10.18C339.046 9.59333 338.513 9.3 337.83 9.3C337.158 9.3 336.625 9.59333 336.23 10.18C335.846 10.7667 335.654 11.6733 335.654 12.9C335.654 14.1267 335.846 15.0333 336.23 15.62C336.625 16.2067 337.158 16.5 337.83 16.5ZM351.554 12.612C352.108 12.8893 352.53 13.252 352.818 13.7C353.116 14.148 353.266 14.6653 353.266 15.252C353.266 15.9453 353.068 16.5533 352.674 17.076C352.279 17.588 351.724 17.988 351.01 18.276C350.295 18.5533 349.468 18.692 348.53 18.692C347.591 18.692 346.764 18.5533 346.05 18.276C345.346 17.988 344.796 17.588 344.402 17.076C344.018 16.5533 343.826 15.9453 343.826 15.252C343.826 14.6653 343.97 14.148 344.258 13.7C344.556 13.252 344.978 12.8893 345.522 12.612C345.106 12.356 344.786 12.036 344.562 11.652C344.338 11.2573 344.226 10.8093 344.226 10.308C344.226 9.65733 344.407 9.092 344.77 8.612C345.132 8.132 345.639 7.764 346.29 7.508C346.94 7.24133 347.687 7.108 348.53 7.108C349.383 7.108 350.135 7.24133 350.786 7.508C351.447 7.764 351.959 8.132 352.322 8.612C352.684 9.092 352.866 9.65733 352.866 10.308C352.866 10.8093 352.754 11.2573 352.53 11.652C352.306 12.036 351.98 12.356 351.554 12.612ZM348.53 9.012C348.007 9.012 347.586 9.14 347.266 9.396C346.956 9.64133 346.802 9.98267 346.802 10.42C346.802 10.8467 346.956 11.1827 347.266 11.428C347.575 11.6733 347.996 11.796 348.53 11.796C349.063 11.796 349.49 11.6733 349.81 11.428C350.13 11.1827 350.29 10.8467 350.29 10.42C350.29 9.98267 350.13 9.64133 349.81 9.396C349.49 9.14 349.063 9.012 348.53 9.012ZM348.53 16.788C349.18 16.788 349.692 16.644 350.066 16.356C350.45 16.0573 350.642 15.6627 350.642 15.172C350.642 14.6813 350.45 14.292 350.066 14.004C349.692 13.716 349.18 13.572 348.53 13.572C347.89 13.572 347.383 13.716 347.01 14.004C346.636 14.292 346.45 14.6813 346.45 15.172C346.45 15.6733 346.636 16.068 347.01 16.356C347.383 16.644 347.89 16.788 348.53 16.788ZM359.252 18.692C358.324 18.692 357.497 18.4627 356.772 18.004C356.047 17.5453 355.476 16.884 355.06 16.02C354.655 15.1453 354.452 14.1053 354.452 12.9C354.452 11.6947 354.655 10.66 355.06 9.796C355.476 8.92133 356.047 8.25467 356.772 7.796C357.497 7.33733 358.324 7.108 359.252 7.108C360.18 7.108 361.007 7.33733 361.732 7.796C362.457 8.25467 363.023 8.92133 363.428 9.796C363.844 10.66 364.052 11.6947 364.052 12.9C364.052 14.1053 363.844 15.1453 363.428 16.02C363.023 16.884 362.457 17.5453 361.732 18.004C361.007 18.4627 360.18 18.692 359.252 18.692ZM359.252 16.5C359.935 16.5 360.468 16.2067 360.852 15.62C361.247 15.0333 361.444 14.1267 361.444 12.9C361.444 11.6733 361.247 10.7667 360.852 10.18C360.468 9.59333 359.935 9.3 359.252 9.3C358.58 9.3 358.047 9.59333 357.652 10.18C357.268 10.7667 357.076 11.6733 357.076 12.9C357.076 14.1267 357.268 15.0333 357.652 15.62C358.047 16.2067 358.58 16.5 359.252 16.5ZM370.112 18.692C369.184 18.692 368.357 18.4627 367.632 18.004C366.906 17.5453 366.336 16.884 365.92 16.02C365.514 15.1453 365.312 14.1053 365.312 12.9C365.312 11.6947 365.514 10.66 365.92 9.796C366.336 8.92133 366.906 8.25467 367.632 7.796C368.357 7.33733 369.184 7.108 370.112 7.108C371.04 7.108 371.866 7.33733 372.592 7.796C373.317 8.25467 373.882 8.92133 374.288 9.796C374.704 10.66 374.912 11.6947 374.912 12.9C374.912 14.1053 374.704 15.1453 374.288 16.02C373.882 16.884 373.317 17.5453 372.592 18.004C371.866 18.4627 371.04 18.692 370.112 18.692ZM370.112 16.5C370.794 16.5 371.328 16.2067 371.712 15.62C372.106 15.0333 372.304 14.1267 372.304 12.9C372.304 11.6733 372.106 10.7667 371.712 10.18C371.328 9.59333 370.794 9.3 370.112 9.3C369.44 9.3 368.906 9.59333 368.512 10.18C368.128 10.7667 367.936 11.6733 367.936 12.9C367.936 14.1267 368.128 15.0333 368.512 15.62C368.906 16.2067 369.44 16.5 370.112 16.5ZM389.07 16.388V18.5H380.606V16.82L384.926 12.74C385.385 12.3027 385.694 11.9293 385.854 11.62C386.014 11.3 386.094 10.9853 386.094 10.676C386.094 10.228 385.939 9.88667 385.63 9.652C385.331 9.40667 384.889 9.284 384.302 9.284C383.811 9.284 383.369 9.38 382.974 9.572C382.579 9.75333 382.249 10.0307 381.982 10.404L380.094 9.188C380.531 8.53733 381.134 8.03067 381.902 7.668C382.67 7.29467 383.55 7.108 384.542 7.108C385.374 7.108 386.099 7.24667 386.718 7.524C387.347 7.79067 387.833 8.17467 388.174 8.676C388.526 9.16667 388.702 9.748 388.702 10.42C388.702 11.028 388.574 11.5987 388.318 12.132C388.062 12.6653 387.566 13.2733 386.83 13.956L384.254 16.388H389.07ZM394.46 7.3V18.5H391.868V9.38H389.628V7.3H394.46ZM400.725 7.3V18.5H398.133V9.38H395.893V7.3H400.725ZM411.138 7.108C412.706 7.108 413.933 7.588 414.818 8.548C415.703 9.49733 416.146 10.868 416.146 12.66C416.146 13.9293 415.906 15.0173 415.426 15.924C414.957 16.8307 414.29 17.5187 413.426 17.988C412.562 18.4573 411.565 18.692 410.434 18.692C409.837 18.692 409.266 18.628 408.722 18.5C408.178 18.3613 407.714 18.1693 407.33 17.924L408.29 16.02C408.834 16.3933 409.533 16.58 410.386 16.58C411.335 16.58 412.087 16.3027 412.642 15.748C413.197 15.1827 413.495 14.372 413.538 13.316C412.866 13.988 411.938 14.324 410.754 14.324C410.039 14.324 409.389 14.18 408.802 13.892C408.215 13.604 407.751 13.1987 407.41 12.676C407.069 12.1427 406.898 11.5293 406.898 10.836C406.898 10.0893 407.085 9.43333 407.458 8.868C407.831 8.30267 408.338 7.87067 408.978 7.572C409.629 7.26267 410.349 7.108 411.138 7.108ZM411.33 12.388C411.895 12.388 412.354 12.2333 412.706 11.924C413.069 11.604 413.25 11.1987 413.25 10.708C413.25 10.2173 413.074 9.81733 412.722 9.508C412.381 9.19867 411.906 9.044 411.298 9.044C410.743 9.044 410.29 9.19333 409.938 9.492C409.597 9.79067 409.426 10.196 409.426 10.708C409.426 11.22 409.597 11.6307 409.938 11.94C410.29 12.2387 410.754 12.388 411.33 12.388ZM425.664 16.388V18.5H417.2V16.82L421.52 12.74C421.979 12.3027 422.288 11.9293 422.448 11.62C422.608 11.3 422.688 10.9853 422.688 10.676C422.688 10.228 422.533 9.88667 422.224 9.652C421.925 9.40667 421.483 9.284 420.896 9.284C420.405 9.284 419.963 9.38 419.568 9.572C419.173 9.75333 418.843 10.0307 418.576 10.404L416.688 9.188C417.125 8.53733 417.728 8.03067 418.496 7.668C419.264 7.29467 420.144 7.108 421.136 7.108C421.968 7.108 422.693 7.24667 423.312 7.524C423.941 7.79067 424.427 8.17467 424.768 8.676C425.12 9.16667 425.296 9.748 425.296 10.42C425.296 11.028 425.168 11.5987 424.912 12.132C424.656 12.6653 424.16 13.2733 423.424 13.956L420.848 16.388H425.664ZM435.47 7.3V8.98L431.31 18.5H428.494L432.51 9.412H428.798V11.236H426.494V7.3H435.47Z" fill="white"/>
<circle cx="445" cy="12.5" r="3" fill="#E6E6F0"/>
<g clip-path="url(#clip1_62149_2701)">
<path d="M478 12.5733C478 5.90541 472.627 0.5 466 0.5C459.373 0.5 454 5.90541 454 12.5733C454 18.5995 458.388 23.5943 464.125 24.5V16.0633H461.078V12.5733H464.125V9.91343C464.125 6.88755 465.917 5.21615 468.658 5.21615C469.97 5.21615 471.344 5.45195 471.344 5.45195V8.42313H469.831C468.34 8.42313 467.875 9.35379 467.875 10.3086V12.5733H471.203L470.671 16.0633H467.875V24.5C473.612 23.5943 478 18.5995 478 12.5733Z" fill="white"/>
</g>
</g>
<defs>
<clipPath id="clip0_62149_2701">
<rect width="478" height="25" fill="white"/>
</clipPath>
<clipPath id="clip1_62149_2701">
<rect width="24" height="24" fill="white" transform="translate(454 0.5)"/>
</clipPath>
</defs>
</svg>
