<svg width="416" height="25" viewBox="0 0 416 25" fill="none" xmlns="http://www.w3.org/2000/svg">
<path d="M5.26463 7.264C6.59796 7.264 7.62196 7.584 8.33663 8.224C9.05129 8.85333 9.40863 9.808 9.40863 11.088V16H7.07263V14.928C6.60329 15.728 5.72863 16.128 4.44863 16.128C3.78729 16.128 3.21129 16.016 2.72063 15.792C2.24063 15.568 1.87263 15.2587 1.61663 14.864C1.36063 14.4693 1.23263 14.0213 1.23263 13.52C1.23263 12.72 1.53129 12.0907 2.12863 11.632C2.73663 11.1733 3.66996 10.944 4.92863 10.944H6.91263C6.91263 10.4 6.74729 9.984 6.41663 9.696C6.08596 9.39733 5.58996 9.248 4.92863 9.248C4.46996 9.248 4.01663 9.32267 3.56863 9.472C3.13129 9.61067 2.75796 9.80267 2.44863 10.048L1.55263 8.304C2.02196 7.97333 2.58196 7.71733 3.23263 7.536C3.89396 7.35467 4.57129 7.264 5.26463 7.264ZM5.07263 14.448C5.49929 14.448 5.87796 14.352 6.20863 14.16C6.53929 13.9573 6.77396 13.664 6.91263 13.28V12.4H5.20063C4.17663 12.4 3.66463 12.736 3.66463 13.408C3.66463 13.728 3.78729 13.984 4.03263 14.176C4.28863 14.3573 4.63529 14.448 5.07263 14.448ZM16.7556 7.264C17.5556 7.264 18.281 7.45067 18.9316 7.824C19.593 8.18667 20.1103 8.704 20.4836 9.376C20.857 10.0373 21.0436 10.8107 21.0436 11.696C21.0436 12.5813 20.857 13.36 20.4836 14.032C20.1103 14.6933 19.593 15.2107 18.9316 15.584C18.281 15.9467 17.5556 16.128 16.7556 16.128C15.5716 16.128 14.6703 15.7547 14.0516 15.008V16H11.6676V4.128H14.1636V8.304C14.793 7.61067 15.657 7.264 16.7556 7.264ZM16.3236 14.08C16.9636 14.08 17.4863 13.8667 17.8916 13.44C18.3076 13.0027 18.5156 12.4213 18.5156 11.696C18.5156 10.9707 18.3076 10.3947 17.8916 9.968C17.4863 9.53067 16.9636 9.312 16.3236 9.312C15.6836 9.312 15.1556 9.53067 14.7396 9.968C14.3343 10.3947 14.1316 10.9707 14.1316 11.696C14.1316 12.4213 14.3343 13.0027 14.7396 13.44C15.1556 13.8667 15.6836 14.08 16.3236 14.08ZM26.8105 16.128C25.9038 16.128 25.0878 15.9413 24.3625 15.568C23.6478 15.184 23.0878 14.656 22.6825 13.984C22.2772 13.312 22.0745 12.5493 22.0745 11.696C22.0745 10.8427 22.2772 10.08 22.6825 9.408C23.0878 8.736 23.6478 8.21333 24.3625 7.84C25.0878 7.456 25.9038 7.264 26.8105 7.264C27.7172 7.264 28.5278 7.456 29.2425 7.84C29.9572 8.21333 30.5172 8.736 30.9225 9.408C31.3278 10.08 31.5305 10.8427 31.5305 11.696C31.5305 12.5493 31.3278 13.312 30.9225 13.984C30.5172 14.656 29.9572 15.184 29.2425 15.568C28.5278 15.9413 27.7172 16.128 26.8105 16.128ZM26.8105 14.08C27.4505 14.08 27.9732 13.8667 28.3785 13.44C28.7945 13.0027 29.0025 12.4213 29.0025 11.696C29.0025 10.9707 28.7945 10.3947 28.3785 9.968C27.9732 9.53067 27.4505 9.312 26.8105 9.312C26.1705 9.312 25.6425 9.53067 25.2265 9.968C24.8105 10.3947 24.6025 10.9707 24.6025 11.696C24.6025 12.4213 24.8105 13.0027 25.2265 13.44C25.6425 13.8667 26.1705 14.08 26.8105 14.08ZM41.8709 7.392V16H39.5029V14.976C39.1722 15.3493 38.7775 15.6373 38.3189 15.84C37.8602 16.032 37.3642 16.128 36.8309 16.128C35.7002 16.128 34.8042 15.8027 34.1429 15.152C33.4815 14.5013 33.1509 13.536 33.1509 12.256V7.392H35.6469V11.888C35.6469 13.2747 36.2282 13.968 37.3909 13.968C37.9882 13.968 38.4682 13.776 38.8309 13.392C39.1935 12.9973 39.3749 12.416 39.3749 11.648V7.392H41.8709ZM49.7353 15.584C49.4899 15.7653 49.1859 15.904 48.8233 16C48.4713 16.0853 48.0979 16.128 47.7033 16.128C46.6793 16.128 45.8846 15.8667 45.3193 15.344C44.7646 14.8213 44.4873 14.0533 44.4873 13.04V9.504H43.1593V7.584H44.4873V5.488H46.9833V7.584H49.1273V9.504H46.9833V13.008C46.9833 13.3707 47.0739 13.6533 47.2552 13.856C47.4473 14.048 47.7139 14.144 48.0553 14.144C48.4499 14.144 48.7859 14.0373 49.0633 13.824L49.7353 15.584ZM64.3396 7.392V16H61.9716V14.976C61.641 15.3493 61.2463 15.6373 60.7876 15.84C60.329 16.032 59.833 16.128 59.2996 16.128C58.169 16.128 57.273 15.8027 56.6116 15.152C55.9503 14.5013 55.6196 13.536 55.6196 12.256V7.392H58.1156V11.888C58.1156 13.2747 58.697 13.968 59.8596 13.968C60.457 13.968 60.937 13.776 61.2996 13.392C61.6623 12.9973 61.8436 12.416 61.8436 11.648V7.392H64.3396ZM69.548 16.128C68.8333 16.128 68.1347 16.0427 67.452 15.872C66.7693 15.6907 66.2253 15.4667 65.82 15.2L66.652 13.408C67.036 13.6533 67.5 13.856 68.044 14.016C68.588 14.1653 69.1213 14.24 69.644 14.24C70.7 14.24 71.228 13.9787 71.228 13.456C71.228 13.2107 71.084 13.0347 70.796 12.928C70.508 12.8213 70.0653 12.7307 69.468 12.656C68.764 12.5493 68.1827 12.4267 67.724 12.288C67.2653 12.1493 66.8653 11.904 66.524 11.552C66.1933 11.2 66.028 10.6987 66.028 10.048C66.028 9.504 66.1827 9.024 66.492 8.608C66.812 8.18133 67.2707 7.85067 67.868 7.616C68.476 7.38133 69.1907 7.264 70.012 7.264C70.62 7.264 71.2227 7.33333 71.82 7.472C72.428 7.6 72.9293 7.78133 73.324 8.016L72.492 9.792C71.7347 9.36533 70.908 9.152 70.012 9.152C69.4787 9.152 69.0787 9.22667 68.812 9.376C68.5453 9.52533 68.412 9.71733 68.412 9.952C68.412 10.2187 68.556 10.4053 68.844 10.512C69.132 10.6187 69.5907 10.72 70.22 10.816C70.924 10.9333 71.5 11.0613 71.948 11.2C72.396 11.328 72.7853 11.568 73.116 11.92C73.4467 12.272 73.612 12.7627 73.612 13.392C73.612 13.9253 73.452 14.4 73.132 14.816C72.812 15.232 72.3427 15.5573 71.724 15.792C71.116 16.016 70.3907 16.128 69.548 16.128Z" fill="white"/>
<path d="M94.0168 16.128C93.3021 16.128 92.6034 16.0427 91.9208 15.872C91.2381 15.6907 90.6941 15.4667 90.2888 15.2L91.1208 13.408C91.5048 13.6533 91.9688 13.856 92.5128 14.016C93.0568 14.1653 93.5901 14.24 94.1128 14.24C95.1688 14.24 95.6968 13.9787 95.6968 13.456C95.6968 13.2107 95.5528 13.0347 95.2648 12.928C94.9768 12.8213 94.5341 12.7307 93.9368 12.656C93.2328 12.5493 92.6514 12.4267 92.1928 12.288C91.7341 12.1493 91.3341 11.904 90.9928 11.552C90.6621 11.2 90.4967 10.6987 90.4967 10.048C90.4967 9.504 90.6514 9.024 90.9608 8.608C91.2808 8.18133 91.7394 7.85067 92.3368 7.616C92.9448 7.38133 93.6594 7.264 94.4808 7.264C95.0888 7.264 95.6914 7.33333 96.2888 7.472C96.8968 7.6 97.3981 7.78133 97.7928 8.016L96.9608 9.792C96.2034 9.36533 95.3768 9.152 94.4808 9.152C93.9474 9.152 93.5474 9.22667 93.2808 9.376C93.0141 9.52533 92.8808 9.71733 92.8808 9.952C92.8808 10.2187 93.0248 10.4053 93.3128 10.512C93.6008 10.6187 94.0594 10.72 94.6888 10.816C95.3928 10.9333 95.9688 11.0613 96.4168 11.2C96.8648 11.328 97.2541 11.568 97.5848 11.92C97.9154 12.272 98.0808 12.7627 98.0808 13.392C98.0808 13.9253 97.9208 14.4 97.6008 14.816C97.2808 15.232 96.8114 15.5573 96.1928 15.792C95.5848 16.016 94.8594 16.128 94.0168 16.128ZM108.053 11.728C108.053 11.76 108.037 11.984 108.005 12.4H101.493C101.61 12.9333 101.887 13.3547 102.325 13.664C102.762 13.9733 103.306 14.128 103.957 14.128C104.405 14.128 104.799 14.064 105.141 13.936C105.493 13.7973 105.818 13.584 106.117 13.296L107.445 14.736C106.634 15.664 105.45 16.128 103.893 16.128C102.922 16.128 102.063 15.9413 101.317 15.568C100.57 15.184 99.9941 14.656 99.5888 13.984C99.1834 13.312 98.9808 12.5493 98.9808 11.696C98.9808 10.8533 99.1781 10.096 99.5728 9.424C99.9781 8.74133 100.527 8.21333 101.221 7.84C101.925 7.456 102.709 7.264 103.573 7.264C104.415 7.264 105.178 7.44533 105.861 7.808C106.543 8.17067 107.077 8.69333 107.461 9.376C107.855 10.048 108.053 10.832 108.053 11.728ZM103.589 9.152C103.023 9.152 102.549 9.312 102.165 9.632C101.781 9.952 101.546 10.3893 101.461 10.944H105.701C105.615 10.4 105.381 9.968 104.997 9.648C104.613 9.31733 104.143 9.152 103.589 9.152ZM112.099 8.528C112.397 8.112 112.797 7.79733 113.299 7.584C113.811 7.37067 114.397 7.264 115.059 7.264V9.568C114.781 9.54667 114.595 9.536 114.499 9.536C113.784 9.536 113.224 9.73867 112.819 10.144C112.413 10.5387 112.211 11.136 112.211 11.936V16H109.715V7.392H112.099V8.528ZM125.384 7.392L121.752 16H119.176L115.559 7.392H118.136L120.52 13.248L122.984 7.392H125.384ZM126.402 7.392H128.898V16H126.402V7.392ZM127.65 6.192C127.191 6.192 126.818 6.05867 126.53 5.792C126.242 5.52533 126.098 5.19467 126.098 4.8C126.098 4.40533 126.242 4.07467 126.53 3.808C126.818 3.54133 127.191 3.408 127.65 3.408C128.109 3.408 128.482 3.536 128.77 3.792C129.058 4.048 129.202 4.368 129.202 4.752C129.202 5.168 129.058 5.51467 128.77 5.792C128.482 6.05867 128.109 6.192 127.65 6.192ZM135.375 16.128C134.457 16.128 133.631 15.9413 132.895 15.568C132.169 15.184 131.599 14.656 131.183 13.984C130.777 13.312 130.575 12.5493 130.575 11.696C130.575 10.8427 130.777 10.08 131.183 9.408C131.599 8.736 132.169 8.21333 132.895 7.84C133.631 7.456 134.457 7.264 135.375 7.264C136.281 7.264 137.071 7.456 137.743 7.84C138.425 8.21333 138.921 8.752 139.231 9.456L137.295 10.496C136.847 9.70667 136.201 9.312 135.359 9.312C134.708 9.312 134.169 9.52533 133.743 9.952C133.316 10.3787 133.103 10.96 133.103 11.696C133.103 12.432 133.316 13.0133 133.743 13.44C134.169 13.8667 134.708 14.08 135.359 14.08C136.212 14.08 136.857 13.6853 137.295 12.896L139.231 13.952C138.921 14.6347 138.425 15.168 137.743 15.552C137.071 15.936 136.281 16.128 135.375 16.128ZM148.99 11.728C148.99 11.76 148.974 11.984 148.942 12.4H142.43C142.548 12.9333 142.825 13.3547 143.262 13.664C143.7 13.9733 144.244 14.128 144.894 14.128C145.342 14.128 145.737 14.064 146.078 13.936C146.43 13.7973 146.756 13.584 147.054 13.296L148.382 14.736C147.572 15.664 146.388 16.128 144.83 16.128C143.86 16.128 143.001 15.9413 142.254 15.568C141.508 15.184 140.932 14.656 140.526 13.984C140.121 13.312 139.918 12.5493 139.918 11.696C139.918 10.8533 140.116 10.096 140.51 9.424C140.916 8.74133 141.465 8.21333 142.158 7.84C142.862 7.456 143.646 7.264 144.51 7.264C145.353 7.264 146.116 7.44533 146.798 7.808C147.481 8.17067 148.014 8.69333 148.398 9.376C148.793 10.048 148.99 10.832 148.99 11.728ZM144.526 9.152C143.961 9.152 143.486 9.312 143.102 9.632C142.718 9.952 142.484 10.3893 142.398 10.944H146.638C146.553 10.4 146.318 9.968 145.934 9.648C145.55 9.31733 145.081 9.152 144.526 9.152ZM153.548 16.128C152.833 16.128 152.135 16.0427 151.452 15.872C150.769 15.6907 150.225 15.4667 149.82 15.2L150.652 13.408C151.036 13.6533 151.5 13.856 152.044 14.016C152.588 14.1653 153.121 14.24 153.644 14.24C154.7 14.24 155.228 13.9787 155.228 13.456C155.228 13.2107 155.084 13.0347 154.796 12.928C154.508 12.8213 154.065 12.7307 153.468 12.656C152.764 12.5493 152.183 12.4267 151.724 12.288C151.265 12.1493 150.865 11.904 150.524 11.552C150.193 11.2 150.028 10.6987 150.028 10.048C150.028 9.504 150.183 9.024 150.492 8.608C150.812 8.18133 151.271 7.85067 151.868 7.616C152.476 7.38133 153.191 7.264 154.012 7.264C154.62 7.264 155.223 7.33333 155.82 7.472C156.428 7.6 156.929 7.78133 157.324 8.016L156.492 9.792C155.735 9.36533 154.908 9.152 154.012 9.152C153.479 9.152 153.079 9.22667 152.812 9.376C152.545 9.52533 152.412 9.71733 152.412 9.952C152.412 10.2187 152.556 10.4053 152.844 10.512C153.132 10.6187 153.591 10.72 154.22 10.816C154.924 10.9333 155.5 11.0613 155.948 11.2C156.396 11.328 156.785 11.568 157.116 11.92C157.447 12.272 157.612 12.7627 157.612 13.392C157.612 13.9253 157.452 14.4 157.132 14.816C156.812 15.232 156.343 15.5573 155.724 15.792C155.116 16.016 154.391 16.128 153.548 16.128Z" fill="white"/>
<path d="M180.501 15.584C180.256 15.7653 179.952 15.904 179.589 16C179.237 16.0853 178.864 16.128 178.469 16.128C177.445 16.128 176.65 15.8667 176.085 15.344C175.53 14.8213 175.253 14.0533 175.253 13.04V9.504H173.925V7.584H175.253V5.488H177.749V7.584H179.893V9.504H177.749V13.008C177.749 13.3707 177.84 13.6533 178.021 13.856C178.213 14.048 178.48 14.144 178.821 14.144C179.216 14.144 179.552 14.0373 179.829 13.824L180.501 15.584ZM190.068 11.728C190.068 11.76 190.052 11.984 190.02 12.4H183.508C183.626 12.9333 183.903 13.3547 184.34 13.664C184.778 13.9733 185.322 14.128 185.972 14.128C186.42 14.128 186.815 14.064 187.156 13.936C187.508 13.7973 187.834 13.584 188.132 13.296L189.46 14.736C188.65 15.664 187.466 16.128 185.908 16.128C184.938 16.128 184.079 15.9413 183.332 15.568C182.586 15.184 182.01 14.656 181.604 13.984C181.199 13.312 180.996 12.5493 180.996 11.696C180.996 10.8533 181.194 10.096 181.588 9.424C181.994 8.74133 182.543 8.21333 183.236 7.84C183.94 7.456 184.724 7.264 185.588 7.264C186.431 7.264 187.194 7.44533 187.876 7.808C188.559 8.17067 189.092 8.69333 189.476 9.376C189.871 10.048 190.068 10.832 190.068 11.728ZM185.604 9.152C185.039 9.152 184.564 9.312 184.18 9.632C183.796 9.952 183.562 10.3893 183.476 10.944H187.716C187.631 10.4 187.396 9.968 187.012 9.648C186.628 9.31733 186.159 9.152 185.604 9.152ZM194.968 7.264C196.301 7.264 197.325 7.584 198.04 8.224C198.754 8.85333 199.112 9.808 199.112 11.088V16H196.776V14.928C196.306 15.728 195.432 16.128 194.152 16.128C193.49 16.128 192.914 16.016 192.424 15.792C191.944 15.568 191.576 15.2587 191.32 14.864C191.064 14.4693 190.936 14.0213 190.936 13.52C190.936 12.72 191.234 12.0907 191.832 11.632C192.44 11.1733 193.373 10.944 194.632 10.944H196.616C196.616 10.4 196.45 9.984 196.12 9.696C195.789 9.39733 195.293 9.248 194.632 9.248C194.173 9.248 193.72 9.32267 193.272 9.472C192.834 9.61067 192.461 9.80267 192.152 10.048L191.256 8.304C191.725 7.97333 192.285 7.71733 192.936 7.536C193.597 7.35467 194.274 7.264 194.968 7.264ZM194.776 14.448C195.202 14.448 195.581 14.352 195.912 14.16C196.242 13.9573 196.477 13.664 196.616 13.28V12.4H194.904C193.88 12.4 193.368 12.736 193.368 13.408C193.368 13.728 193.49 13.984 193.736 14.176C193.992 14.3573 194.338 14.448 194.776 14.448ZM212.395 7.264C213.472 7.264 214.325 7.584 214.955 8.224C215.595 8.85333 215.915 9.80267 215.915 11.072V16H213.419V11.456C213.419 10.7733 213.275 10.2667 212.987 9.936C212.709 9.59467 212.309 9.424 211.787 9.424C211.2 9.424 210.736 9.616 210.395 10C210.053 10.3733 209.883 10.9333 209.883 11.68V16H207.387V11.456C207.387 10.1013 206.843 9.424 205.755 9.424C205.179 9.424 204.72 9.616 204.379 10C204.037 10.3733 203.867 10.9333 203.867 11.68V16H201.371V7.392H203.755V8.384C204.075 8.02133 204.464 7.744 204.923 7.552C205.392 7.36 205.904 7.264 206.459 7.264C207.067 7.264 207.616 7.38667 208.107 7.632C208.597 7.86667 208.992 8.21333 209.291 8.672C209.643 8.224 210.085 7.87733 210.619 7.632C211.163 7.38667 211.755 7.264 212.395 7.264Z" fill="white"/>
<path d="M238.396 7.264C239.196 7.264 239.922 7.45067 240.572 7.824C241.234 8.18667 241.751 8.704 242.124 9.376C242.498 10.0373 242.684 10.8107 242.684 11.696C242.684 12.5813 242.498 13.36 242.124 14.032C241.751 14.6933 241.234 15.2107 240.572 15.584C239.922 15.9467 239.196 16.128 238.396 16.128C237.298 16.128 236.434 15.7813 235.804 15.088V19.104H233.308V7.392H235.692V8.384C236.311 7.63733 237.212 7.264 238.396 7.264ZM237.964 14.08C238.604 14.08 239.127 13.8667 239.532 13.44C239.948 13.0027 240.156 12.4213 240.156 11.696C240.156 10.9707 239.948 10.3947 239.532 9.968C239.127 9.53067 238.604 9.312 237.964 9.312C237.324 9.312 236.796 9.53067 236.38 9.968C235.975 10.3947 235.772 10.9707 235.772 11.696C235.772 12.4213 235.975 13.0027 236.38 13.44C236.796 13.8667 237.324 14.08 237.964 14.08ZM253.027 7.392V16H250.659V14.976C250.328 15.3493 249.934 15.6373 249.475 15.84C249.016 16.032 248.52 16.128 247.987 16.128C246.856 16.128 245.96 15.8027 245.299 15.152C244.638 14.5013 244.307 13.536 244.307 12.256V7.392H246.803V11.888C246.803 13.2747 247.384 13.968 248.547 13.968C249.144 13.968 249.624 13.776 249.987 13.392C250.35 12.9973 250.531 12.416 250.531 11.648V7.392H253.027ZM260.428 7.264C261.228 7.264 261.953 7.45067 262.604 7.824C263.265 8.18667 263.782 8.704 264.156 9.376C264.529 10.0373 264.716 10.8107 264.716 11.696C264.716 12.5813 264.529 13.36 264.156 14.032C263.782 14.6933 263.265 15.2107 262.604 15.584C261.953 15.9467 261.228 16.128 260.428 16.128C259.244 16.128 258.342 15.7547 257.724 15.008V16H255.34V4.128H257.836V8.304C258.465 7.61067 259.329 7.264 260.428 7.264ZM259.996 14.08C260.636 14.08 261.158 13.8667 261.564 13.44C261.98 13.0027 262.188 12.4213 262.188 11.696C262.188 10.9707 261.98 10.3947 261.564 9.968C261.158 9.53067 260.636 9.312 259.996 9.312C259.356 9.312 258.828 9.53067 258.411 9.968C258.006 10.3947 257.804 10.9707 257.804 11.696C257.804 12.4213 258.006 13.0027 258.411 13.44C258.828 13.8667 259.356 14.08 259.996 14.08ZM266.386 4.128H268.882V16H266.386V4.128ZM271.199 7.392H273.695V16H271.199V7.392ZM272.447 6.192C271.988 6.192 271.615 6.05867 271.327 5.792C271.039 5.52533 270.895 5.19467 270.895 4.8C270.895 4.40533 271.039 4.07467 271.327 3.808C271.615 3.54133 271.988 3.408 272.447 3.408C272.906 3.408 273.279 3.536 273.567 3.792C273.855 4.048 273.999 4.368 273.999 4.752C273.999 5.168 273.855 5.51467 273.567 5.792C273.279 6.05867 272.906 6.192 272.447 6.192ZM280.171 16.128C279.254 16.128 278.427 15.9413 277.691 15.568C276.966 15.184 276.395 14.656 275.979 13.984C275.574 13.312 275.371 12.5493 275.371 11.696C275.371 10.8427 275.574 10.08 275.979 9.408C276.395 8.736 276.966 8.21333 277.691 7.84C278.427 7.456 279.254 7.264 280.171 7.264C281.078 7.264 281.867 7.456 282.539 7.84C283.222 8.21333 283.718 8.752 284.027 9.456L282.091 10.496C281.643 9.70667 280.998 9.312 280.155 9.312C279.505 9.312 278.966 9.52533 278.539 9.952C278.113 10.3787 277.899 10.96 277.899 11.696C277.899 12.432 278.113 13.0133 278.539 13.44C278.966 13.8667 279.505 14.08 280.155 14.08C281.009 14.08 281.654 13.6853 282.091 12.896L284.027 13.952C283.718 14.6347 283.222 15.168 282.539 15.552C281.867 15.936 281.078 16.128 280.171 16.128ZM288.937 7.264C290.27 7.264 291.294 7.584 292.009 8.224C292.723 8.85333 293.081 9.808 293.081 11.088V16H290.745V14.928C290.275 15.728 289.401 16.128 288.121 16.128C287.459 16.128 286.883 16.016 286.393 15.792C285.913 15.568 285.545 15.2587 285.289 14.864C285.033 14.4693 284.905 14.0213 284.905 13.52C284.905 12.72 285.203 12.0907 285.801 11.632C286.409 11.1733 287.342 10.944 288.601 10.944H290.585C290.585 10.4 290.419 9.984 290.089 9.696C289.758 9.39733 289.262 9.248 288.601 9.248C288.142 9.248 287.689 9.32267 287.241 9.472C286.803 9.61067 286.43 9.80267 286.121 10.048L285.225 8.304C285.694 7.97333 286.254 7.71733 286.905 7.536C287.566 7.35467 288.243 7.264 288.937 7.264ZM288.745 14.448C289.171 14.448 289.55 14.352 289.881 14.16C290.211 13.9573 290.446 13.664 290.585 13.28V12.4H288.873C287.849 12.4 287.337 12.736 287.337 13.408C287.337 13.728 287.459 13.984 287.705 14.176C287.961 14.3573 288.307 14.448 288.745 14.448ZM300.892 15.584C300.646 15.7653 300.342 15.904 299.98 16C299.628 16.0853 299.254 16.128 298.86 16.128C297.836 16.128 297.041 15.8667 296.476 15.344C295.921 14.8213 295.644 14.0533 295.644 13.04V9.504H294.316V7.584H295.644V5.488H298.14V7.584H300.284V9.504H298.14V13.008C298.14 13.3707 298.23 13.6533 298.411 13.856C298.604 14.048 298.87 14.144 299.212 14.144C299.606 14.144 299.942 14.0373 300.22 13.824L300.892 15.584ZM302.293 7.392H304.789V16H302.293V7.392ZM303.541 6.192C303.082 6.192 302.709 6.05867 302.421 5.792C302.133 5.52533 301.989 5.19467 301.989 4.8C301.989 4.40533 302.133 4.07467 302.421 3.808C302.709 3.54133 303.082 3.408 303.541 3.408C303.999 3.408 304.373 3.536 304.661 3.792C304.949 4.048 305.093 4.368 305.093 4.752C305.093 5.168 304.949 5.51467 304.661 5.792C304.373 6.05867 303.999 6.192 303.541 6.192ZM311.201 16.128C310.294 16.128 309.478 15.9413 308.753 15.568C308.038 15.184 307.478 14.656 307.073 13.984C306.668 13.312 306.465 12.5493 306.465 11.696C306.465 10.8427 306.668 10.08 307.073 9.408C307.478 8.736 308.038 8.21333 308.753 7.84C309.478 7.456 310.294 7.264 311.201 7.264C312.108 7.264 312.918 7.456 313.633 7.84C314.348 8.21333 314.908 8.736 315.313 9.408C315.718 10.08 315.921 10.8427 315.921 11.696C315.921 12.5493 315.718 13.312 315.313 13.984C314.908 14.656 314.348 15.184 313.633 15.568C312.918 15.9413 312.108 16.128 311.201 16.128ZM311.201 14.08C311.841 14.08 312.364 13.8667 312.769 13.44C313.185 13.0027 313.393 12.4213 313.393 11.696C313.393 10.9707 313.185 10.3947 312.769 9.968C312.364 9.53067 311.841 9.312 311.201 9.312C310.561 9.312 310.033 9.53067 309.617 9.968C309.201 10.3947 308.993 10.9707 308.993 11.696C308.993 12.4213 309.201 13.0027 309.617 13.44C310.033 13.8667 310.561 14.08 311.201 14.08ZM322.822 7.264C323.888 7.264 324.747 7.584 325.398 8.224C326.059 8.864 326.39 9.81333 326.39 11.072V16H323.894V11.456C323.894 10.7733 323.744 10.2667 323.446 9.936C323.147 9.59467 322.715 9.424 322.15 9.424C321.52 9.424 321.019 9.62133 320.646 10.016C320.272 10.4 320.086 10.976 320.086 11.744V16H317.59V7.392H319.974V8.4C320.304 8.03733 320.715 7.76 321.206 7.568C321.696 7.36533 322.235 7.264 322.822 7.264ZM331.548 16.128C330.833 16.128 330.135 16.0427 329.452 15.872C328.769 15.6907 328.225 15.4667 327.82 15.2L328.652 13.408C329.036 13.6533 329.5 13.856 330.044 14.016C330.588 14.1653 331.121 14.24 331.644 14.24C332.7 14.24 333.228 13.9787 333.228 13.456C333.228 13.2107 333.084 13.0347 332.796 12.928C332.508 12.8213 332.065 12.7307 331.468 12.656C330.764 12.5493 330.183 12.4267 329.724 12.288C329.265 12.1493 328.865 11.904 328.524 11.552C328.193 11.2 328.028 10.6987 328.028 10.048C328.028 9.504 328.183 9.024 328.492 8.608C328.812 8.18133 329.271 7.85067 329.868 7.616C330.476 7.38133 331.191 7.264 332.012 7.264C332.62 7.264 333.223 7.33333 333.82 7.472C334.428 7.6 334.929 7.78133 335.324 8.016L334.492 9.792C333.735 9.36533 332.908 9.152 332.012 9.152C331.479 9.152 331.079 9.22667 330.812 9.376C330.545 9.52533 330.412 9.71733 330.412 9.952C330.412 10.2187 330.556 10.4053 330.844 10.512C331.132 10.6187 331.591 10.72 332.22 10.816C332.924 10.9333 333.5 11.0613 333.948 11.2C334.396 11.328 334.785 11.568 335.116 11.92C335.447 12.272 335.612 12.7627 335.612 13.392C335.612 13.9253 335.452 14.4 335.132 14.816C334.812 15.232 334.343 15.5573 333.724 15.792C333.116 16.016 332.391 16.128 331.548 16.128Z" fill="white"/>
<path d="M356.968 16.128C356.051 16.128 355.224 15.9413 354.488 15.568C353.763 15.184 353.192 14.656 352.776 13.984C352.371 13.312 352.168 12.5493 352.168 11.696C352.168 10.8427 352.371 10.08 352.776 9.408C353.192 8.736 353.763 8.21333 354.488 7.84C355.224 7.456 356.051 7.264 356.968 7.264C357.875 7.264 358.664 7.456 359.336 7.84C360.019 8.21333 360.515 8.752 360.824 9.456L358.888 10.496C358.44 9.70667 357.795 9.312 356.952 9.312C356.302 9.312 355.763 9.52533 355.336 9.952C354.91 10.3787 354.696 10.96 354.696 11.696C354.696 12.432 354.91 13.0133 355.336 13.44C355.763 13.8667 356.302 14.08 356.952 14.08C357.806 14.08 358.451 13.6853 358.888 12.896L360.824 13.952C360.515 14.6347 360.019 15.168 359.336 15.552C358.664 15.936 357.875 16.128 356.968 16.128ZM366.248 16.128C365.341 16.128 364.525 15.9413 363.8 15.568C363.085 15.184 362.525 14.656 362.12 13.984C361.715 13.312 361.512 12.5493 361.512 11.696C361.512 10.8427 361.715 10.08 362.12 9.408C362.525 8.736 363.085 8.21333 363.8 7.84C364.525 7.456 365.341 7.264 366.248 7.264C367.155 7.264 367.965 7.456 368.68 7.84C369.395 8.21333 369.955 8.736 370.36 9.408C370.765 10.08 370.968 10.8427 370.968 11.696C370.968 12.5493 370.765 13.312 370.36 13.984C369.955 14.656 369.395 15.184 368.68 15.568C367.965 15.9413 367.155 16.128 366.248 16.128ZM366.248 14.08C366.888 14.08 367.411 13.8667 367.816 13.44C368.232 13.0027 368.44 12.4213 368.44 11.696C368.44 10.9707 368.232 10.3947 367.816 9.968C367.411 9.53067 366.888 9.312 366.248 9.312C365.608 9.312 365.08 9.53067 364.664 9.968C364.248 10.3947 364.04 10.9707 364.04 11.696C364.04 12.4213 364.248 13.0027 364.664 13.44C365.08 13.8667 365.608 14.08 366.248 14.08ZM377.868 7.264C378.935 7.264 379.794 7.584 380.444 8.224C381.106 8.864 381.436 9.81333 381.436 11.072V16H378.94V11.456C378.94 10.7733 378.791 10.2667 378.492 9.936C378.194 9.59467 377.762 9.424 377.196 9.424C376.567 9.424 376.066 9.62133 375.692 10.016C375.319 10.4 375.132 10.976 375.132 11.744V16H372.636V7.392H375.02V8.4C375.351 8.03733 375.762 7.76 376.252 7.568C376.743 7.36533 377.282 7.264 377.868 7.264ZM389.251 15.584C389.006 15.7653 388.702 15.904 388.339 16C387.987 16.0853 387.614 16.128 387.219 16.128C386.195 16.128 385.4 15.8667 384.835 15.344C384.28 14.8213 384.003 14.0533 384.003 13.04V9.504H382.675V7.584H384.003V5.488H386.499V7.584H388.643V9.504H386.499V13.008C386.499 13.3707 386.59 13.6533 386.771 13.856C386.963 14.048 387.23 14.144 387.571 14.144C387.966 14.144 388.302 14.0373 388.579 13.824L389.251 15.584ZM394.124 7.264C395.457 7.264 396.481 7.584 397.196 8.224C397.911 8.85333 398.268 9.808 398.268 11.088V16H395.932V14.928C395.463 15.728 394.588 16.128 393.308 16.128C392.647 16.128 392.071 16.016 391.58 15.792C391.1 15.568 390.732 15.2587 390.476 14.864C390.22 14.4693 390.092 14.0213 390.092 13.52C390.092 12.72 390.391 12.0907 390.988 11.632C391.596 11.1733 392.529 10.944 393.788 10.944H395.772C395.772 10.4 395.607 9.984 395.276 9.696C394.945 9.39733 394.449 9.248 393.788 9.248C393.329 9.248 392.876 9.32267 392.428 9.472C391.991 9.61067 391.617 9.80267 391.308 10.048L390.412 8.304C390.881 7.97333 391.441 7.71733 392.092 7.536C392.753 7.35467 393.431 7.264 394.124 7.264ZM393.932 14.448C394.359 14.448 394.737 14.352 395.068 14.16C395.399 13.9573 395.633 13.664 395.772 13.28V12.4H394.06C393.036 12.4 392.524 12.736 392.524 13.408C392.524 13.728 392.647 13.984 392.892 14.176C393.148 14.3573 393.495 14.448 393.932 14.448ZM404.781 16.128C403.863 16.128 403.037 15.9413 402.301 15.568C401.575 15.184 401.005 14.656 400.589 13.984C400.183 13.312 399.981 12.5493 399.981 11.696C399.981 10.8427 400.183 10.08 400.589 9.408C401.005 8.736 401.575 8.21333 402.301 7.84C403.037 7.456 403.863 7.264 404.781 7.264C405.687 7.264 406.477 7.456 407.149 7.84C407.831 8.21333 408.327 8.752 408.637 9.456L406.701 10.496C406.253 9.70667 405.607 9.312 404.765 9.312C404.114 9.312 403.575 9.52533 403.149 9.952C402.722 10.3787 402.509 10.96 402.509 11.696C402.509 12.432 402.722 13.0133 403.149 13.44C403.575 13.8667 404.114 14.08 404.765 14.08C405.618 14.08 406.263 13.6853 406.701 12.896L408.637 13.952C408.327 14.6347 407.831 15.168 407.149 15.552C406.477 15.936 405.687 16.128 404.781 16.128ZM415.751 15.584C415.506 15.7653 415.202 15.904 414.839 16C414.487 16.0853 414.114 16.128 413.719 16.128C412.695 16.128 411.9 15.8667 411.335 15.344C410.78 14.8213 410.503 14.0533 410.503 13.04V9.504H409.175V7.584H410.503V5.488H412.999V7.584H415.143V9.504H412.999V13.008C412.999 13.3707 413.09 13.6533 413.271 13.856C413.463 14.048 413.73 14.144 414.071 14.144C414.466 14.144 414.802 14.0373 415.079 13.824L415.751 15.584Z" fill="white"/>
</svg>
