<svg width="482" height="25" viewBox="0 0 482 25" fill="none" xmlns="http://www.w3.org/2000/svg">
<g clip-path="url(#clip0_62612_1576)">
<path d="M15.962 8.6L12.386 15.248C12.042 15.888 11.626 16.372 11.138 16.7C10.658 17.028 10.134 17.192 9.56598 17.192C9.12598 17.192 8.66998 17.096 8.19798 16.904L8.66598 15.428C9.00198 15.532 9.28198 15.584 9.50598 15.584C9.74598 15.584 9.96198 15.528 10.154 15.416C10.346 15.296 10.522 15.112 10.682 14.864L10.754 14.768L7.44198 8.6H9.51798L11.75 13.112L14.054 8.6H15.962ZM21.1378 13.616H19.7938V17H17.8618V8.6H19.7938V11.996H21.1858L23.3938 8.6H25.4458L22.6978 12.656L25.5298 17H23.3218L21.1378 13.616Z" fill="white"/>
<path d="M45.1488 8.6C45.8928 8.6 46.5368 8.724 47.0807 8.972C47.6328 9.22 48.0568 9.572 48.3528 10.028C48.6488 10.484 48.7968 11.024 48.7968 11.648C48.7968 12.264 48.6488 12.804 48.3528 13.268C48.0568 13.724 47.6328 14.076 47.0807 14.324C46.5368 14.564 45.8928 14.684 45.1488 14.684H43.4568V17H41.5128V8.6H45.1488ZM45.0408 13.1C45.6248 13.1 46.0688 12.976 46.3728 12.728C46.6768 12.472 46.8288 12.112 46.8288 11.648C46.8288 11.176 46.6768 10.816 46.3728 10.568C46.0688 10.312 45.6248 10.184 45.0408 10.184H43.4568V13.1H45.0408ZM58.4757 8.6L54.8997 15.248C54.5557 15.888 54.1397 16.372 53.6517 16.7C53.1717 17.028 52.6477 17.192 52.0797 17.192C51.6397 17.192 51.1837 17.096 50.7117 16.904L51.1797 15.428C51.5157 15.532 51.7957 15.584 52.0197 15.584C52.2597 15.584 52.4757 15.528 52.6677 15.416C52.8597 15.296 53.0357 15.112 53.1957 14.864L53.2677 14.768L49.9557 8.6H52.0317L54.2637 13.112L56.5677 8.6H58.4757Z" fill="white"/>
<rect x="66" width="33" height="25" rx="8" fill="#F0145A"/>
<path d="M80.6289 15.44V17H74.1249V8.6H80.4729V10.16H76.0569V11.984H79.9569V13.496H76.0569V15.44H80.6289ZM90.8797 8.6V17H89.2837L85.0957 11.9V17H83.1757V8.6H84.7837L88.9597 13.7V8.6H90.8797Z" fill="white"/>
<circle cx="108" cy="12.5" r="3" fill="#E6E6F0"/>
<path d="M122.937 13.236L120.649 15.556V18.5H119.465V7.3H120.649V14.068L127.225 7.3H128.585L123.737 12.372L128.921 18.5H127.513L122.937 13.236ZM137.094 10.084L132.886 19.508C132.544 20.2973 132.15 20.8573 131.702 21.188C131.254 21.5187 130.715 21.684 130.086 21.684C129.68 21.684 129.302 21.62 128.95 21.492C128.598 21.364 128.293 21.172 128.037 20.916L128.566 20.068C128.992 20.4947 129.504 20.708 130.102 20.708C130.486 20.708 130.811 20.6013 131.078 20.388C131.355 20.1747 131.611 19.812 131.846 19.3L132.214 18.484L128.454 10.084H129.638L132.806 17.236L135.974 10.084H137.094ZM138.693 10.084H139.829V18.5H138.693V10.084ZM139.269 8.244C139.035 8.244 138.837 8.164 138.677 8.004C138.517 7.844 138.437 7.652 138.437 7.428C138.437 7.21467 138.517 7.028 138.677 6.868C138.837 6.708 139.035 6.628 139.269 6.628C139.504 6.628 139.701 6.708 139.861 6.868C140.021 7.01733 140.101 7.19867 140.101 7.412C140.101 7.64667 140.021 7.844 139.861 8.004C139.701 8.164 139.504 8.244 139.269 8.244ZM150.062 10.084L146.318 18.5H145.15L141.422 10.084H142.606L145.758 17.252L148.942 10.084H150.062ZM151.243 16.836C151.489 16.836 151.691 16.9213 151.851 17.092C152.011 17.252 152.091 17.4547 152.091 17.7C152.091 17.828 152.07 17.9667 152.027 18.116C151.995 18.2653 151.942 18.436 151.867 18.628L151.195 20.836H150.427L150.971 18.516C150.801 18.4627 150.662 18.3667 150.555 18.228C150.449 18.0787 150.395 17.9027 150.395 17.7C150.395 17.4547 150.475 17.252 150.635 17.092C150.795 16.9213 150.998 16.836 151.243 16.836ZM170.565 7.3V18.5H169.429V9.54L165.029 17.076H164.469L160.069 9.588V18.5H158.933V7.3H159.909L164.773 15.604L169.589 7.3H170.565ZM181.303 14.644H174.263C174.327 15.5187 174.663 16.228 175.271 16.772C175.879 17.3053 176.647 17.572 177.575 17.572C178.097 17.572 178.577 17.4813 179.015 17.3C179.452 17.108 179.831 16.8307 180.151 16.468L180.791 17.204C180.417 17.652 179.948 17.9933 179.383 18.228C178.828 18.4627 178.215 18.58 177.543 18.58C176.679 18.58 175.911 18.3987 175.239 18.036C174.577 17.6627 174.06 17.1507 173.687 16.5C173.313 15.8493 173.127 15.1133 173.127 14.292C173.127 13.4707 173.303 12.7347 173.655 12.084C174.017 11.4333 174.508 10.9267 175.127 10.564C175.756 10.2013 176.46 10.02 177.239 10.02C178.017 10.02 178.716 10.2013 179.335 10.564C179.953 10.9267 180.439 11.4333 180.791 12.084C181.143 12.724 181.319 13.46 181.319 14.292L181.303 14.644ZM177.239 10.996C176.428 10.996 175.745 11.2573 175.191 11.78C174.647 12.292 174.337 12.964 174.263 13.796H180.231C180.156 12.964 179.841 12.292 179.287 11.78C178.743 11.2573 178.06 10.996 177.239 10.996ZM187.119 18.58C186.287 18.58 185.54 18.3987 184.879 18.036C184.228 17.6733 183.716 17.1667 183.343 16.516C182.97 15.8547 182.783 15.1133 182.783 14.292C182.783 13.4707 182.97 12.7347 183.343 12.084C183.716 11.4333 184.228 10.9267 184.879 10.564C185.54 10.2013 186.287 10.02 187.119 10.02C187.844 10.02 188.49 10.164 189.055 10.452C189.631 10.7293 190.084 11.14 190.415 11.684L189.567 12.26C189.29 11.844 188.938 11.5347 188.511 11.332C188.084 11.1187 187.62 11.012 187.119 11.012C186.511 11.012 185.962 11.1507 185.471 11.428C184.991 11.6947 184.612 12.0787 184.335 12.58C184.068 13.0813 183.935 13.652 183.935 14.292C183.935 14.9427 184.068 15.5187 184.335 16.02C184.612 16.5107 184.991 16.8947 185.471 17.172C185.962 17.4387 186.511 17.572 187.119 17.572C187.62 17.572 188.084 17.4707 188.511 17.268C188.938 17.0653 189.29 16.756 189.567 16.34L190.415 16.916C190.084 17.46 189.631 17.876 189.055 18.164C188.479 18.4413 187.834 18.58 187.119 18.58ZM196.81 10.02C197.866 10.02 198.703 10.3293 199.322 10.948C199.951 11.556 200.266 12.4467 200.266 13.62V18.5H199.13V13.732C199.13 12.8573 198.911 12.1907 198.474 11.732C198.036 11.2733 197.412 11.044 196.602 11.044C195.695 11.044 194.975 11.316 194.442 11.86C193.919 12.3933 193.658 13.1347 193.658 14.084V18.5H192.522V6.628H193.658V11.556C193.967 11.0653 194.394 10.6867 194.938 10.42C195.482 10.1533 196.106 10.02 196.81 10.02ZM207.638 10.02C208.694 10.02 209.531 10.3293 210.15 10.948C210.779 11.556 211.094 12.4467 211.094 13.62V18.5H209.958V13.732C209.958 12.8573 209.739 12.1907 209.302 11.732C208.864 11.2733 208.24 11.044 207.43 11.044C206.523 11.044 205.803 11.316 205.27 11.86C204.747 12.3933 204.486 13.1347 204.486 14.084V18.5H203.35V10.084H204.438V11.636C204.747 11.124 205.174 10.7293 205.718 10.452C206.272 10.164 206.912 10.02 207.638 10.02ZM214.178 10.084H215.314V18.5H214.178V10.084ZM214.754 8.244C214.519 8.244 214.322 8.164 214.162 8.004C214.002 7.844 213.922 7.652 213.922 7.428C213.922 7.21467 214.002 7.028 214.162 6.868C214.322 6.708 214.519 6.628 214.754 6.628C214.988 6.628 215.186 6.708 215.346 6.868C215.506 7.01733 215.586 7.19867 215.586 7.412C215.586 7.64667 215.506 7.844 215.346 8.004C215.186 8.164 214.988 8.244 214.754 8.244ZM221.595 14.276L219.611 16.1V18.5H218.475V6.628H219.611V14.676L224.635 10.084H226.043L222.443 13.524L226.379 18.5H224.987L221.595 14.276ZM231.18 18.58C230.37 18.58 229.639 18.3987 228.988 18.036C228.338 17.6627 227.826 17.1507 227.452 16.5C227.079 15.8493 226.892 15.1133 226.892 14.292C226.892 13.4707 227.079 12.7347 227.452 12.084C227.826 11.4333 228.338 10.9267 228.988 10.564C229.639 10.2013 230.37 10.02 231.18 10.02C231.991 10.02 232.722 10.2013 233.372 10.564C234.023 10.9267 234.53 11.4333 234.892 12.084C235.266 12.7347 235.452 13.4707 235.452 14.292C235.452 15.1133 235.266 15.8493 234.892 16.5C234.53 17.1507 234.023 17.6627 233.372 18.036C232.722 18.3987 231.991 18.58 231.18 18.58ZM231.18 17.572C231.778 17.572 232.311 17.4387 232.78 17.172C233.26 16.8947 233.634 16.5053 233.9 16.004C234.167 15.5027 234.3 14.932 234.3 14.292C234.3 13.652 234.167 13.0813 233.9 12.58C233.634 12.0787 233.26 11.6947 232.78 11.428C232.311 11.1507 231.778 11.012 231.18 11.012C230.583 11.012 230.044 11.1507 229.564 11.428C229.095 11.6947 228.722 12.0787 228.444 12.58C228.178 13.0813 228.044 13.652 228.044 14.292C228.044 14.932 228.178 15.5027 228.444 16.004C228.722 16.5053 229.095 16.8947 229.564 17.172C230.044 17.4387 230.583 17.572 231.18 17.572ZM244.609 10.084L240.865 18.5H239.697L235.969 10.084H237.153L240.305 17.252L243.489 10.084H244.609ZM248.903 10.02C250.002 10.02 250.844 10.2973 251.431 10.852C252.018 11.396 252.311 12.2067 252.311 13.284V18.5H251.223V17.188C250.967 17.6253 250.588 17.9667 250.087 18.212C249.596 18.4573 249.01 18.58 248.327 18.58C247.388 18.58 246.642 18.356 246.087 17.908C245.532 17.46 245.255 16.868 245.255 16.132C245.255 15.4173 245.511 14.8413 246.023 14.404C246.546 13.9667 247.372 13.748 248.503 13.748H251.175V13.236C251.175 12.5107 250.972 11.9613 250.567 11.588C250.162 11.204 249.57 11.012 248.791 11.012C248.258 11.012 247.746 11.1027 247.255 11.284C246.764 11.4547 246.343 11.6947 245.991 12.004L245.479 11.156C245.906 10.7933 246.418 10.516 247.015 10.324C247.612 10.1213 248.242 10.02 248.903 10.02ZM248.503 17.684C249.143 17.684 249.692 17.54 250.151 17.252C250.61 16.9533 250.951 16.5267 251.175 15.972V14.596H248.535C247.095 14.596 246.375 15.0973 246.375 16.1C246.375 16.5907 246.562 16.98 246.935 17.268C247.308 17.5453 247.831 17.684 248.503 17.684ZM261.84 18.58C261.157 18.58 260.501 18.484 259.872 18.292C259.253 18.0893 258.768 17.8387 258.416 17.54L258.928 16.644C259.28 16.9213 259.723 17.1507 260.256 17.332C260.789 17.5027 261.344 17.588 261.92 17.588C262.688 17.588 263.253 17.4707 263.616 17.236C263.989 16.9907 264.176 16.6493 264.176 16.212C264.176 15.9027 264.075 15.6627 263.872 15.492C263.669 15.3107 263.413 15.1773 263.104 15.092C262.795 14.996 262.384 14.9053 261.872 14.82C261.189 14.692 260.64 14.564 260.224 14.436C259.808 14.2973 259.451 14.068 259.152 13.748C258.864 13.428 258.72 12.9853 258.72 12.42C258.72 11.716 259.013 11.14 259.6 10.692C260.187 10.244 261.003 10.02 262.048 10.02C262.592 10.02 263.136 10.0947 263.68 10.244C264.224 10.3827 264.672 10.5693 265.024 10.804L264.528 11.716C263.835 11.236 263.008 10.996 262.048 10.996C261.323 10.996 260.773 11.124 260.4 11.38C260.037 11.636 259.856 11.972 259.856 12.388C259.856 12.708 259.957 12.964 260.16 13.156C260.373 13.348 260.635 13.492 260.944 13.588C261.253 13.6733 261.68 13.764 262.224 13.86C262.896 13.988 263.435 14.116 263.84 14.244C264.245 14.372 264.592 14.5907 264.88 14.9C265.168 15.2093 265.312 15.636 265.312 16.18C265.312 16.916 265.003 17.5027 264.384 17.94C263.776 18.3667 262.928 18.58 261.84 18.58ZM271.844 17.988C271.631 18.18 271.364 18.3293 271.044 18.436C270.735 18.532 270.409 18.58 270.068 18.58C269.279 18.58 268.671 18.3667 268.244 17.94C267.817 17.5133 267.604 16.9107 267.604 16.132V11.044H266.1V10.084H267.604V8.244H268.74V10.084H271.3V11.044H268.74V16.068C268.74 16.5693 268.863 16.9533 269.108 17.22C269.364 17.476 269.727 17.604 270.196 17.604C270.431 17.604 270.655 17.5667 270.868 17.492C271.092 17.4173 271.284 17.3107 271.444 17.172L271.844 17.988ZM275 11.732C275.267 11.1667 275.661 10.74 276.184 10.452C276.717 10.164 277.373 10.02 278.152 10.02V11.124L277.88 11.108C276.995 11.108 276.301 11.38 275.8 11.924C275.299 12.468 275.048 13.2307 275.048 14.212V18.5H273.912V10.084H275V11.732ZM280.29 18.58C280.055 18.58 279.852 18.4947 279.682 18.324C279.522 18.1533 279.442 17.9453 279.442 17.7C279.442 17.4547 279.522 17.252 279.682 17.092C279.852 16.9213 280.055 16.836 280.29 16.836C280.524 16.836 280.727 16.9213 280.898 17.092C281.068 17.252 281.154 17.4547 281.154 17.7C281.154 17.9453 281.068 18.1533 280.898 18.324C280.727 18.4947 280.524 18.58 280.29 18.58ZM283.696 16.836C283.942 16.836 284.144 16.9213 284.304 17.092C284.464 17.252 284.544 17.4547 284.544 17.7C284.544 17.828 284.523 17.9667 284.48 18.116C284.448 18.2653 284.395 18.436 284.32 18.628L283.648 20.836H282.88L283.424 18.516C283.254 18.4627 283.115 18.3667 283.008 18.228C282.902 18.0787 282.848 17.9027 282.848 17.7C282.848 17.4547 282.928 17.252 283.088 17.092C283.248 16.9213 283.451 16.836 283.696 16.836ZM293.499 7.3V18.5H292.347V8.324H289.707V7.3H293.499ZM305.696 15.556H303.456V18.5H302.304V15.556H295.984V14.724L301.92 7.3H303.2L297.472 14.532H302.336V11.94H303.456V14.532H305.696V15.556ZM311.255 5.028H312.295L307.015 20.1H305.975L311.255 5.028ZM316.155 7.3V18.5H315.003V8.324H312.363V7.3H316.155Z" fill="#B3B3BA"/>
<circle cx="327" cy="12.5" r="3" fill="#E6E6F0"/>
<path d="M341.83 18.692C340.902 18.692 340.076 18.4627 339.35 18.004C338.625 17.5453 338.054 16.884 337.638 16.02C337.233 15.1453 337.03 14.1053 337.03 12.9C337.03 11.6947 337.233 10.66 337.638 9.796C338.054 8.92133 338.625 8.25467 339.35 7.796C340.076 7.33733 340.902 7.108 341.83 7.108C342.758 7.108 343.585 7.33733 344.31 7.796C345.036 8.25467 345.601 8.92133 346.006 9.796C346.422 10.66 346.63 11.6947 346.63 12.9C346.63 14.1053 346.422 15.1453 346.006 16.02C345.601 16.884 345.036 17.5453 344.31 18.004C343.585 18.4627 342.758 18.692 341.83 18.692ZM341.83 16.5C342.513 16.5 343.046 16.2067 343.43 15.62C343.825 15.0333 344.022 14.1267 344.022 12.9C344.022 11.6733 343.825 10.7667 343.43 10.18C343.046 9.59333 342.513 9.3 341.83 9.3C341.158 9.3 340.625 9.59333 340.23 10.18C339.846 10.7667 339.654 11.6733 339.654 12.9C339.654 14.1267 339.846 15.0333 340.23 15.62C340.625 16.2067 341.158 16.5 341.83 16.5ZM355.554 12.612C356.108 12.8893 356.53 13.252 356.818 13.7C357.116 14.148 357.266 14.6653 357.266 15.252C357.266 15.9453 357.068 16.5533 356.674 17.076C356.279 17.588 355.724 17.988 355.01 18.276C354.295 18.5533 353.468 18.692 352.53 18.692C351.591 18.692 350.764 18.5533 350.05 18.276C349.346 17.988 348.796 17.588 348.402 17.076C348.018 16.5533 347.826 15.9453 347.826 15.252C347.826 14.6653 347.97 14.148 348.258 13.7C348.556 13.252 348.978 12.8893 349.522 12.612C349.106 12.356 348.786 12.036 348.562 11.652C348.338 11.2573 348.226 10.8093 348.226 10.308C348.226 9.65733 348.407 9.092 348.77 8.612C349.132 8.132 349.639 7.764 350.29 7.508C350.94 7.24133 351.687 7.108 352.53 7.108C353.383 7.108 354.135 7.24133 354.786 7.508C355.447 7.764 355.959 8.132 356.322 8.612C356.684 9.092 356.866 9.65733 356.866 10.308C356.866 10.8093 356.754 11.2573 356.53 11.652C356.306 12.036 355.98 12.356 355.554 12.612ZM352.53 9.012C352.007 9.012 351.586 9.14 351.266 9.396C350.956 9.64133 350.802 9.98267 350.802 10.42C350.802 10.8467 350.956 11.1827 351.266 11.428C351.575 11.6733 351.996 11.796 352.53 11.796C353.063 11.796 353.49 11.6733 353.81 11.428C354.13 11.1827 354.29 10.8467 354.29 10.42C354.29 9.98267 354.13 9.64133 353.81 9.396C353.49 9.14 353.063 9.012 352.53 9.012ZM352.53 16.788C353.18 16.788 353.692 16.644 354.066 16.356C354.45 16.0573 354.642 15.6627 354.642 15.172C354.642 14.6813 354.45 14.292 354.066 14.004C353.692 13.716 353.18 13.572 352.53 13.572C351.89 13.572 351.383 13.716 351.01 14.004C350.636 14.292 350.45 14.6813 350.45 15.172C350.45 15.6733 350.636 16.068 351.01 16.356C351.383 16.644 351.89 16.788 352.53 16.788ZM363.252 18.692C362.324 18.692 361.497 18.4627 360.772 18.004C360.047 17.5453 359.476 16.884 359.06 16.02C358.655 15.1453 358.452 14.1053 358.452 12.9C358.452 11.6947 358.655 10.66 359.06 9.796C359.476 8.92133 360.047 8.25467 360.772 7.796C361.497 7.33733 362.324 7.108 363.252 7.108C364.18 7.108 365.007 7.33733 365.732 7.796C366.457 8.25467 367.023 8.92133 367.428 9.796C367.844 10.66 368.052 11.6947 368.052 12.9C368.052 14.1053 367.844 15.1453 367.428 16.02C367.023 16.884 366.457 17.5453 365.732 18.004C365.007 18.4627 364.18 18.692 363.252 18.692ZM363.252 16.5C363.935 16.5 364.468 16.2067 364.852 15.62C365.247 15.0333 365.444 14.1267 365.444 12.9C365.444 11.6733 365.247 10.7667 364.852 10.18C364.468 9.59333 363.935 9.3 363.252 9.3C362.58 9.3 362.047 9.59333 361.652 10.18C361.268 10.7667 361.076 11.6733 361.076 12.9C361.076 14.1267 361.268 15.0333 361.652 15.62C362.047 16.2067 362.58 16.5 363.252 16.5ZM374.112 18.692C373.184 18.692 372.357 18.4627 371.632 18.004C370.906 17.5453 370.336 16.884 369.92 16.02C369.514 15.1453 369.312 14.1053 369.312 12.9C369.312 11.6947 369.514 10.66 369.92 9.796C370.336 8.92133 370.906 8.25467 371.632 7.796C372.357 7.33733 373.184 7.108 374.112 7.108C375.04 7.108 375.866 7.33733 376.592 7.796C377.317 8.25467 377.882 8.92133 378.288 9.796C378.704 10.66 378.912 11.6947 378.912 12.9C378.912 14.1053 378.704 15.1453 378.288 16.02C377.882 16.884 377.317 17.5453 376.592 18.004C375.866 18.4627 375.04 18.692 374.112 18.692ZM374.112 16.5C374.794 16.5 375.328 16.2067 375.712 15.62C376.106 15.0333 376.304 14.1267 376.304 12.9C376.304 11.6733 376.106 10.7667 375.712 10.18C375.328 9.59333 374.794 9.3 374.112 9.3C373.44 9.3 372.906 9.59333 372.512 10.18C372.128 10.7667 371.936 11.6733 371.936 12.9C371.936 14.1267 372.128 15.0333 372.512 15.62C372.906 16.2067 373.44 16.5 374.112 16.5ZM393.07 16.388V18.5H384.606V16.82L388.926 12.74C389.385 12.3027 389.694 11.9293 389.854 11.62C390.014 11.3 390.094 10.9853 390.094 10.676C390.094 10.228 389.939 9.88667 389.63 9.652C389.331 9.40667 388.889 9.284 388.302 9.284C387.811 9.284 387.369 9.38 386.974 9.572C386.579 9.75333 386.249 10.0307 385.982 10.404L384.094 9.188C384.531 8.53733 385.134 8.03067 385.902 7.668C386.67 7.29467 387.55 7.108 388.542 7.108C389.374 7.108 390.099 7.24667 390.718 7.524C391.347 7.79067 391.833 8.17467 392.174 8.676C392.526 9.16667 392.702 9.748 392.702 10.42C392.702 11.028 392.574 11.5987 392.318 12.132C392.062 12.6653 391.566 13.2733 390.83 13.956L388.254 16.388H393.07ZM398.46 7.3V18.5H395.868V9.38H393.628V7.3H398.46ZM404.725 7.3V18.5H402.133V9.38H399.893V7.3H404.725ZM415.138 7.108C416.706 7.108 417.933 7.588 418.818 8.548C419.703 9.49733 420.146 10.868 420.146 12.66C420.146 13.9293 419.906 15.0173 419.426 15.924C418.957 16.8307 418.29 17.5187 417.426 17.988C416.562 18.4573 415.565 18.692 414.434 18.692C413.837 18.692 413.266 18.628 412.722 18.5C412.178 18.3613 411.714 18.1693 411.33 17.924L412.29 16.02C412.834 16.3933 413.533 16.58 414.386 16.58C415.335 16.58 416.087 16.3027 416.642 15.748C417.197 15.1827 417.495 14.372 417.538 13.316C416.866 13.988 415.938 14.324 414.754 14.324C414.039 14.324 413.389 14.18 412.802 13.892C412.215 13.604 411.751 13.1987 411.41 12.676C411.069 12.1427 410.898 11.5293 410.898 10.836C410.898 10.0893 411.085 9.43333 411.458 8.868C411.831 8.30267 412.338 7.87067 412.978 7.572C413.629 7.26267 414.349 7.108 415.138 7.108ZM415.33 12.388C415.895 12.388 416.354 12.2333 416.706 11.924C417.069 11.604 417.25 11.1987 417.25 10.708C417.25 10.2173 417.074 9.81733 416.722 9.508C416.381 9.19867 415.906 9.044 415.298 9.044C414.743 9.044 414.29 9.19333 413.938 9.492C413.597 9.79067 413.426 10.196 413.426 10.708C413.426 11.22 413.597 11.6307 413.938 11.94C414.29 12.2387 414.754 12.388 415.33 12.388ZM429.664 16.388V18.5H421.2V16.82L425.52 12.74C425.979 12.3027 426.288 11.9293 426.448 11.62C426.608 11.3 426.688 10.9853 426.688 10.676C426.688 10.228 426.533 9.88667 426.224 9.652C425.925 9.40667 425.483 9.284 424.896 9.284C424.405 9.284 423.963 9.38 423.568 9.572C423.173 9.75333 422.843 10.0307 422.576 10.404L420.688 9.188C421.125 8.53733 421.728 8.03067 422.496 7.668C423.264 7.29467 424.144 7.108 425.136 7.108C425.968 7.108 426.693 7.24667 427.312 7.524C427.941 7.79067 428.427 8.17467 428.768 8.676C429.12 9.16667 429.296 9.748 429.296 10.42C429.296 11.028 429.168 11.5987 428.912 12.132C428.656 12.6653 428.16 13.2733 427.424 13.956L424.848 16.388H429.664ZM439.47 7.3V8.98L435.31 18.5H432.494L436.51 9.412H432.798V11.236H430.494V7.3H439.47Z" fill="white"/>
<circle cx="449" cy="12.5" r="3" fill="#E6E6F0"/>
<g clip-path="url(#clip1_62612_1576)">
<path d="M482 12.5733C482 5.90541 476.627 0.5 470 0.5C463.373 0.5 458 5.90541 458 12.5733C458 18.5995 462.388 23.5943 468.125 24.5V16.0633H465.078V12.5733H468.125V9.91343C468.125 6.88755 469.917 5.21615 472.658 5.21615C473.97 5.21615 475.344 5.45195 475.344 5.45195V8.42313H473.831C472.34 8.42313 471.875 9.35379 471.875 10.3086V12.5733H475.203L474.671 16.0633H471.875V24.5C477.612 23.5943 482 18.5995 482 12.5733Z" fill="white"/>
</g>
</g>
<defs>
<clipPath id="clip0_62612_1576">
<rect width="482" height="25" fill="white"/>
</clipPath>
<clipPath id="clip1_62612_1576">
<rect width="24" height="24" fill="white" transform="translate(458 0.5)"/>
</clipPath>
</defs>
</svg>
